<svg width="818" height="185" viewBox="0 0 818 185" fill="none" xmlns="http://www.w3.org/2000/svg">
<g id="header_color">
<g id="Ellipse 1">
<path d="M144.577 50.5464C144.577 58.6274 138.074 65.1783 130.053 65.1783C122.032 65.1783 115.53 58.6274 115.53 50.5464C115.53 42.4655 122.032 35.9146 130.053 35.9146C138.074 35.9146 144.577 42.4655 144.577 50.5464Z" fill="url(#paint0_linear)"/>
<path d="M144.577 50.5464C144.577 58.6274 138.074 65.1783 130.053 65.1783C122.032 65.1783 115.53 58.6274 115.53 50.5464C115.53 42.4655 122.032 35.9146 130.053 35.9146C138.074 35.9146 144.577 42.4655 144.577 50.5464Z" stroke="#0066FF"/>
</g>
<g id="Ellipse 2">
<path d="M536.057 50.5464C536.057 58.6274 529.702 65.1783 521.863 65.1783C514.024 65.1783 507.67 58.6274 507.67 50.5464C507.67 42.4655 514.024 35.9146 521.863 35.9146C529.702 35.9146 536.057 42.4655 536.057 50.5464Z" fill="url(#paint1_linear)"/>
<path d="M536.057 50.5464C536.057 58.6274 529.702 65.1783 521.863 65.1783C514.024 65.1783 507.67 58.6274 507.67 50.5464C507.67 42.4655 514.024 35.9146 521.863 35.9146C529.702 35.9146 536.057 42.4655 536.057 50.5464Z" stroke="#2654F7"/>
</g>
<g id="r">
<g id="Rectangle 6">
<rect x="716.943" y="6.65085" width="21.1254" height="174.252" fill="url(#paint2_linear)"/>
<rect x="716.943" y="6.65085" width="21.1254" height="174.252" stroke="#0066FF"/>
</g>
<g id="Ellipse 6">
<path d="M817.289 50.5464C817.289 78.4625 794.826 101.093 767.116 101.093C739.406 101.093 716.943 78.4625 716.943 50.5464C716.943 22.6304 739.406 0 767.116 0C794.826 0 817.289 22.6304 817.289 50.5464Z" fill="url(#paint3_linear)"/>
<path d="M817.289 50.5464C817.289 78.4625 794.826 101.093 767.116 101.093C739.406 101.093 716.943 78.4625 716.943 50.5464C716.943 22.6304 739.406 0 767.116 0C794.826 0 817.289 22.6304 817.289 50.5464Z" stroke="#0066FF"/>
</g>
<g id="Rectangle 7">
<rect width="23.1626" height="103.732" transform="matrix(0.878995 -0.476831 0.471377 0.881932 727.506 93.5152)" fill="url(#paint4_linear)"/>
<rect width="23.1626" height="103.732" transform="matrix(0.878995 -0.476831 0.471377 0.881932 727.506 93.5152)" stroke="#0066FF"/>
</g>
</g>
<g id="e">
<rect id="Rectangle 5" x="640.043" y="84.1356" width="11.2034" height="83.796" fill="url(#paint5_linear)" stroke="#0066FF" stroke-width="2"/>
<path id="Arrow 1" d="M701.806 125.078C702.197 124.687 702.197 124.054 701.806 123.664L695.442 117.3C695.052 116.909 694.419 116.909 694.028 117.3C693.638 117.69 693.638 118.323 694.028 118.714L699.685 124.371L694.028 130.028C693.638 130.418 693.638 131.051 694.028 131.442C694.419 131.832 695.052 131.832 695.442 131.442L701.806 125.078ZM649.606 125.371H701.099V123.371H649.606V125.371Z" fill="#0066FF"/>
<path id="Arrow 3" d="M701.806 158.332C702.197 157.942 702.197 157.309 701.806 156.918L695.442 150.554C695.052 150.163 694.419 150.163 694.028 150.554C693.638 150.945 693.638 151.578 694.028 151.968L699.685 157.625L694.028 163.282C693.638 163.672 693.638 164.306 694.028 164.696C694.419 165.087 695.052 165.087 695.442 164.696L701.806 158.332ZM649.606 158.625H701.099V156.625H649.606V158.625Z" fill="#0066FF"/>
<path id="Arrow 2" d="M701.806 93.819C702.197 93.4284 702.197 92.7953 701.806 92.4047L695.442 86.0408C695.052 85.6503 694.419 85.6503 694.028 86.0408C693.638 86.4313 693.638 87.0645 694.028 87.455L699.685 93.1119L694.028 98.7687C693.638 99.1592 693.638 99.7924 694.028 100.183C694.419 100.573 695.052 100.573 695.442 100.183L701.806 93.819ZM649.606 94.1119H701.099V92.1119H649.606V94.1119Z" fill="#0066FF"/>
</g>
<g id="s_2">
<g id="Subtract">
<mask id="path-10-inside-1" fill="white">
<path fill-rule="evenodd" clip-rule="evenodd" d="M614.034 31.1452C608.165 27.8613 601.352 25.9819 594.084 25.9819C572.048 25.9819 554.184 43.2613 554.184 64.5766C554.184 85.8919 572.048 103.171 594.084 103.171C601.352 103.171 608.165 101.292 614.034 98.008C602.108 91.3348 594.084 78.8621 594.084 64.5766C594.084 50.2911 602.108 37.8184 614.034 31.1452Z"/>
</mask>
<path fill-rule="evenodd" clip-rule="evenodd" d="M614.034 31.1452C608.165 27.8613 601.352 25.9819 594.084 25.9819C572.048 25.9819 554.184 43.2613 554.184 64.5766C554.184 85.8919 572.048 103.171 594.084 103.171C601.352 103.171 608.165 101.292 614.034 98.008C602.108 91.3348 594.084 78.8621 594.084 64.5766C594.084 50.2911 602.108 37.8184 614.034 31.1452Z" fill="white"/>
<path d="M614.034 31.1452L614.522 32.0178L616.082 31.1452L614.522 30.2725L614.034 31.1452ZM614.034 98.008L614.522 98.8807L616.082 98.008L614.522 97.1353L614.034 98.008ZM594.084 26.9819C601.178 26.9819 607.823 28.816 613.546 32.0178L614.522 30.2725C608.507 26.9067 601.526 24.9819 594.084 24.9819V26.9819ZM555.184 64.5766C555.184 43.8447 572.569 26.9819 594.084 26.9819V24.9819C571.527 24.9819 553.184 42.678 553.184 64.5766H555.184ZM594.084 102.171C572.569 102.171 555.184 85.3085 555.184 64.5766H553.184C553.184 86.4752 571.527 104.171 594.084 104.171V102.171ZM613.546 97.1353C607.824 100.337 601.178 102.171 594.084 102.171V104.171C601.526 104.171 608.507 102.246 614.522 98.8807L613.546 97.1353ZM614.522 97.1353C602.889 90.6259 595.084 78.4742 595.084 64.5766H593.084C593.084 79.25 601.327 92.0437 613.546 98.8807L614.522 97.1353ZM595.084 64.5766C595.084 50.679 602.889 38.5272 614.522 32.0178L613.546 30.2725C601.327 37.1095 593.084 49.9032 593.084 64.5766H595.084Z" fill="#0066FF" mask="url(#path-10-inside-1)"/>
</g>
<g id="Subtract_2">
<mask id="path-12-inside-2" fill="white">
<path fill-rule="evenodd" clip-rule="evenodd" d="M554.874 175.016C566.736 168.236 574.64 155.692 574.504 141.407C574.367 127.122 566.224 114.721 554.234 108.155C560.071 104.819 566.866 102.879 574.133 102.814C596.168 102.617 614.197 119.735 614.401 141.05C614.605 162.364 596.907 179.803 574.872 180C567.605 180.065 560.774 178.247 554.874 175.016Z"/>
</mask>
<path fill-rule="evenodd" clip-rule="evenodd" d="M554.874 175.016C566.736 168.236 574.64 155.692 574.504 141.407C574.367 127.122 566.224 114.721 554.234 108.155C560.071 104.819 566.866 102.879 574.133 102.814C596.168 102.617 614.197 119.735 614.401 141.05C614.605 162.364 596.907 179.803 574.872 180C567.605 180.065 560.774 178.247 554.874 175.016Z" fill="white"/>
<path d="M554.874 175.016L554.377 174.148L552.826 175.034L554.394 175.893L554.874 175.016ZM554.234 108.155L553.737 107.287L552.186 108.174L553.754 109.032L554.234 108.155ZM573.504 141.416C573.637 155.313 565.948 167.534 554.377 174.148L555.371 175.884C567.524 168.938 575.644 156.071 575.504 141.398L573.504 141.416ZM553.754 109.032C565.45 115.437 573.371 127.519 573.504 141.416L575.504 141.398C575.363 126.725 566.998 114.006 554.714 107.278L553.754 109.032ZM554.731 109.024C560.422 105.771 567.05 103.877 574.143 103.814L574.124 101.814C566.683 101.881 559.72 103.868 553.737 107.287L554.731 109.024ZM574.143 103.814C595.657 103.621 613.202 120.328 613.401 141.059L615.401 141.041C615.191 119.143 596.68 101.612 574.124 101.814L574.143 103.814ZM613.401 141.059C613.599 161.79 596.377 178.807 574.863 179L574.882 181C597.438 180.798 615.61 162.938 615.401 141.041L613.401 141.059ZM574.863 179C567.77 179.064 561.107 177.289 555.354 174.139L554.394 175.893C560.441 179.204 567.441 181.067 574.882 181L574.863 179Z" fill="#0066FF" mask="url(#path-12-inside-2)"/>
</g>
</g>
<g id="s_1">
<path id="Subtract_3" fill-rule="evenodd" clip-rule="evenodd" d="M614.195 31.1452C608.326 27.8614 601.512 25.9819 594.245 25.9819C572.209 25.9819 554.345 43.2613 554.345 64.5766C554.345 85.8919 572.209 103.171 594.245 103.171C601.512 103.171 608.326 101.292 614.195 98.008C602.269 91.3348 594.245 78.8621 594.245 64.5766C594.245 50.2911 602.269 37.8184 614.195 31.1452Z" fill="url(#paint6_linear)"/>
<path id="Subtract_4" fill-rule="evenodd" clip-rule="evenodd" d="M555.035 175.016C566.897 168.236 574.801 155.692 574.664 141.407C574.527 127.122 566.384 114.721 554.395 108.155C560.232 104.819 567.027 102.879 574.294 102.814C596.329 102.617 614.357 119.735 614.561 141.05C614.766 162.364 597.068 179.803 575.033 180C567.766 180.065 560.935 178.247 555.035 175.016Z" fill="url(#paint7_linear)"/>
</g>
<g id="i_2">
<g id="Rectangle 3">
<rect width="21.3832" height="104.339" transform="matrix(0.999992 0.00404564 -0.00584315 0.999983 511.428 75.8119)" fill="white"/>
<rect width="21.3832" height="104.339" transform="matrix(0.999992 0.00404564 -0.00584315 0.999983 511.428 75.8119)" fill="url(#paint8_linear)"/>
<rect width="21.3832" height="104.339" transform="matrix(0.999992 0.00404564 -0.00584315 0.999983 511.428 75.8119)" stroke="#0066FF"/>
</g>
</g>
<g id="l">
<path id="Union" fill-rule="evenodd" clip-rule="evenodd" d="M439.356 6.66392L417.973 6.53606L416.966 179.779L438.349 179.907L438.349 179.869L493.367 180.238L493.507 158.362L438.476 157.993L439.356 6.66392Z" fill="url(#paint9_linear)"/>
</g>
<g id="a_1">
<path id="Subtract_5" fill-rule="evenodd" clip-rule="evenodd" d="M397.836 179.422L362.857 89.181L327.877 179.422H397.836ZM372.67 151.468L363.154 134.149L353.637 151.468H372.67Z" fill="url(#paint10_linear)"/>
</g>
<g id="u">
<path id="Subtract_6" fill-rule="evenodd" clip-rule="evenodd" d="M286.893 145.923C304.935 145.923 319.562 108.241 319.562 61.7585C319.562 58.2875 319.48 54.8655 319.322 51.5046C324.684 64.9891 327.877 81.9381 327.877 100.346C327.877 144.312 309.661 179.953 287.19 179.953C264.719 179.953 246.502 144.312 246.502 100.346C246.502 82.7165 249.431 66.4251 254.389 53.2335C254.28 56.0369 254.224 58.8808 254.224 61.7585C254.224 108.241 268.85 145.923 286.893 145.923Z" fill="url(#paint11_linear)"/>
</g>
<g id="s_1_2">
<path id="Subtract_7" fill-rule="evenodd" clip-rule="evenodd" d="M223.195 31.1452C217.326 27.8614 210.512 25.9819 203.245 25.9819C181.209 25.9819 163.345 43.2613 163.345 64.5766C163.345 85.8919 181.209 103.171 203.245 103.171C210.512 103.171 217.326 101.292 223.195 98.008C211.269 91.3348 203.245 78.8621 203.245 64.5766C203.245 50.2911 211.269 37.8184 223.195 31.1452Z" fill="url(#paint12_linear)"/>
<path id="Subtract_8" fill-rule="evenodd" clip-rule="evenodd" d="M164.035 175.016C175.897 168.236 183.801 155.692 183.664 141.407C183.527 127.122 175.384 114.721 163.395 108.155C169.232 104.819 176.027 102.879 183.294 102.814C205.329 102.617 223.357 119.735 223.561 141.05C223.766 162.364 206.068 179.803 184.033 180C176.766 180.065 169.935 178.247 164.035 175.016Z" fill="url(#paint13_linear)"/>
</g>
<g id="i_1">
<g id="Rectangle 3_2">
<rect width="21.3832" height="104.339" transform="matrix(0.999992 0.00404564 -0.00584315 0.999983 119.4 75.2042)" fill="url(#paint14_linear)"/>
<rect width="21.3832" height="104.339" transform="matrix(0.999992 0.00404564 -0.00584315 0.999983 119.4 75.2042)" stroke="#0066FF"/>
</g>
</g>
<g id="v">
<g id="Union_2">
<path d="M20.8518 5.32068L0 10.168L37.5213 179.108L48.7446 176.499L58.0378 178.996L101.051 11.4316L80.3695 5.87482L48.5261 129.924L20.8518 5.32068Z" fill="url(#paint15_linear)"/>
<path d="M20.8518 5.32068L0 10.168L37.5213 179.108L48.7446 176.499L58.0378 178.996L101.051 11.4316L80.3695 5.87482L48.5261 129.924L20.8518 5.32068Z" stroke="#0066FF"/>
</g>
</g>
</g>
<defs>
<linearGradient id="paint0_linear" x1="130.053" y1="35.9146" x2="130.053" y2="65.1783" gradientUnits="userSpaceOnUse">
<stop stop-color="#FF8A00"/>
<stop offset="1" stop-color="#FF0000"/>
</linearGradient>
<linearGradient id="paint1_linear" x1="521.863" y1="35.9146" x2="521.863" y2="65.1783" gradientUnits="userSpaceOnUse">
<stop stop-color="#FA0000"/>
<stop offset="1" stop-color="#FF6B00"/>
</linearGradient>
<linearGradient id="paint2_linear" x1="727.506" y1="6.65085" x2="727.506" y2="180.903" gradientUnits="userSpaceOnUse">
<stop stop-color="#00FFC2"/>
<stop offset="1" stop-color="#231FFF"/>
</linearGradient>
<linearGradient id="paint3_linear" x1="767.116" y1="0" x2="767.116" y2="101.093" gradientUnits="userSpaceOnUse">
<stop stop-color="#00FFC2"/>
<stop offset="1" stop-color="#231FFF"/>
</linearGradient>
<linearGradient id="paint4_linear" x1="11.5813" y1="0" x2="11.5813" y2="103.732" gradientUnits="userSpaceOnUse">
<stop stop-color="#00FFC2"/>
<stop offset="1" stop-color="#231FFF"/>
</linearGradient>
<linearGradient id="paint5_linear" x1="645.645" y1="83.1356" x2="645.645" y2="168.932" gradientUnits="userSpaceOnUse">
<stop stop-color="#FF7A00"/>
<stop offset="1" stop-color="#F5BF00"/>
</linearGradient>
<linearGradient id="paint6_linear" x1="584.27" y1="25.9819" x2="584.27" y2="103.171" gradientUnits="userSpaceOnUse">
<stop stop-color="#B5386C"/>
<stop offset="0.0001" stop-color="#FF629A" stop-opacity="0.93"/>
<stop offset="1" stop-color="#1D2671" stop-opacity="0.9"/>
</linearGradient>
<linearGradient id="paint7_linear" x1="585.007" y1="179.911" x2="584.316" y2="102.724" gradientUnits="userSpaceOnUse">
<stop stop-color="#B5386C"/>
<stop offset="0.0001" stop-color="#FF629A" stop-opacity="0.93"/>
<stop offset="1" stop-color="#1D2671" stop-opacity="0.9"/>
</linearGradient>
<linearGradient id="paint8_linear" x1="10.6916" y1="0" x2="10.6916" y2="104.339" gradientUnits="userSpaceOnUse">
<stop stop-color="#00FBFB"/>
<stop offset="1" stop-color="#8F00FF"/>
</linearGradient>
<linearGradient id="paint9_linear" x1="455.236" y1="6.53607" x2="455.236" y2="180.238" gradientUnits="userSpaceOnUse">
<stop stop-color="#FAFF00"/>
<stop offset="1" stop-color="#11D600" stop-opacity="0.79"/>
</linearGradient>
<linearGradient id="paint10_linear" x1="362.857" y1="89.181" x2="362.857" y2="179.422" gradientUnits="userSpaceOnUse">
<stop stop-color="#FA1AFF" stop-opacity="0.65"/>
<stop offset="0.9999" stop-color="#FF3537" stop-opacity="0.996354"/>
<stop offset="1" stop-color="#FF0909"/>
</linearGradient>
<linearGradient id="paint11_linear" x1="287.19" y1="51.5046" x2="287.19" y2="179.953" gradientUnits="userSpaceOnUse">
<stop stop-color="#EB3349"/>
<stop offset="1" stop-color="#F45C43" stop-opacity="0.6"/>
</linearGradient>
<linearGradient id="paint12_linear" x1="193.27" y1="25.9819" x2="193.27" y2="103.171" gradientUnits="userSpaceOnUse">
<stop stop-color="#B5386C"/>
<stop offset="0.0001" stop-color="#FF629A" stop-opacity="0.93"/>
<stop offset="1" stop-color="#1D2671" stop-opacity="0.9"/>
</linearGradient>
<linearGradient id="paint13_linear" x1="194.008" y1="179.911" x2="193.316" y2="102.724" gradientUnits="userSpaceOnUse">
<stop stop-color="#B5386C"/>
<stop offset="0.0001" stop-color="#FF629A" stop-opacity="0.93"/>
<stop offset="1" stop-color="#1D2671" stop-opacity="0.9"/>
</linearGradient>
<linearGradient id="paint14_linear" x1="10.6916" y1="0" x2="10.6916" y2="104.339" gradientUnits="userSpaceOnUse">
<stop stop-color="#00FBFB"/>
<stop offset="1" stop-color="#8F00FF"/>
</linearGradient>
<linearGradient id="paint15_linear" x1="50.5257" y1="5.32068" x2="50.5257" y2="179.108" gradientUnits="userSpaceOnUse">
<stop stop-color="#9EFF63"/>
<stop offset="0.0001" stop-color="#80FF00"/>
<stop offset="1" stop-color="#0063F9" stop-opacity="0.74"/>
</linearGradient>
</defs>
</svg>
