<svg width="49" height="49" viewBox="0 0 49 49" fill="none" xmlns="http://www.w3.org/2000/svg">
<g id="open">
<path id="Ellipse 8" d="M49 24.5C49 38.031 38.031 49 24.5 49C10.969 49 0 38.031 0 24.5C0 10.969 10.969 0 24.5 0C38.031 0 49 10.969 49 24.5Z" fill="#C4C4C4"/>
<g id="2">
<path id="Rectangle 8" d="M9.64709 19.1131C9.64709 18.1735 10.4088 17.4117 11.3485 17.4117H37.8901C38.8298 17.4117 39.5915 18.1735 39.5915 19.1131C39.5915 20.0528 38.8298 20.8145 37.8901 20.8145H11.3485C10.4088 20.8145 9.64709 20.0528 9.64709 19.1131Z" fill="black"/>
<path id="Rectangle 11" d="M9.64709 30.4465C9.64709 29.5068 10.4088 28.7451 11.3485 28.7451H37.8901C38.8298 28.7451 39.5915 29.5068 39.5915 30.4465C39.5915 31.3861 38.8298 32.1479 37.8901 32.1479H11.3485C10.4088 32.1479 9.64709 31.3861 9.64709 30.4465Z" fill="black"/>
</g>
</g>
</svg>
